<?xml version="1.0" encoding="UTF-8" standalone="no"?>
<svg
   xmlns:dc="http://purl.org/dc/elements/1.1/"
   xmlns:cc="http://creativecommons.org/ns#"
   xmlns:rdf="http://www.w3.org/1999/02/22-rdf-syntax-ns#"
   xmlns:svg="http://www.w3.org/2000/svg"
   xmlns="http://www.w3.org/2000/svg"
   xmlns:sodipodi="http://sodipodi.sourceforge.net/DTD/sodipodi-0.dtd"
   xmlns:inkscape="http://www.inkscape.org/namespaces/inkscape"
   viewBox="0 0 816 670"
   height="670"
   width="816"
   xml:space="preserve"
   id="svg2"
   version="1.1"
   sodipodi:docname="color-tree-logo-design.svg"
   inkscape:version="0.92.5 (2060ec1f9f, 2020-04-08)"><sodipodi:namedview
   pagecolor="#ffffff"
   bordercolor="#666666"
   borderopacity="1"
   objecttolerance="10"
   gridtolerance="10"
   guidetolerance="10"
   inkscape:pageopacity="0"
   inkscape:pageshadow="2"
   inkscape:window-width="1920"
   inkscape:window-height="984"
   id="namedview46"
   showgrid="false"
   inkscape:zoom="0.68"
   inkscape:cx="408"
   inkscape:cy="528"
   inkscape:window-x="0"
   inkscape:window-y="30"
   inkscape:window-maximized="1"
   inkscape:current-layer="svg2" /><metadata
   id="metadata8"><rdf:RDF><cc:Work
       rdf:about=""><dc:format>image/svg+xml</dc:format><dc:type
         rdf:resource="http://purl.org/dc/dcmitype/StillImage" /><dc:title></dc:title></cc:Work></rdf:RDF></metadata><defs
   id="defs6"><clipPath
     id="clipPath18"
     clipPathUnits="userSpaceOnUse"><path
       id="path16"
       d="M 0,792 H 612 V 0 H 0 Z"
       inkscape:connector-curvature="0" /></clipPath></defs><g
   transform="matrix(4.255303,0,0,-4.255303,-742.76087,1906.0433)"
   id="g10"><g
   id="g12"><g
   clip-path="url(#clipPath18)"
   id="g14"><g
   transform="translate(241.6011,339.5508)"
   id="g20"><path
     id="path22"
     style="fill:#552528;fill-opacity:1;fill-rule:nonzero;stroke:none"
     d="m 0,0 c -1.903,1.093 -2.559,3.523 -1.466,5.426 1.093,1.903 3.523,2.559 5.426,1.467 l 11.916,-6.88 c 1.278,-0.735 1.994,-2.071 1.995,-3.447 h 0.017 V -47.006 H 9.905 v 41.287 z"
     inkscape:connector-curvature="0" /></g><g
   transform="translate(253.0571,362.6289)"
   id="g24"><path
     id="path26"
     style="fill:#552528;fill-opacity:1;fill-rule:nonzero;stroke:none"
     d="M 0,0 C -1.386,1.705 -1.127,4.212 0.578,5.598 2.282,6.983 4.79,6.726 6.175,5.021 L 16.521,-7.72 c 0.602,-0.738 0.894,-1.627 0.892,-2.51 h 0.013 V -70.084 H 9.443 v 58.457 z"
     inkscape:connector-curvature="0" /></g><g
   transform="translate(286.1353,367.6494)"
   id="g28"><path
     id="path30"
     style="fill:#552528;fill-opacity:1;fill-rule:nonzero;stroke:none"
     d="m 0,0 c 1.386,1.705 3.893,1.963 5.598,0.577 1.705,-1.386 1.963,-3.892 0.577,-5.598 l -9.442,-11.626 v -58.457 h -7.983 v 59.853 h 0.012 c -0.001,0.884 0.291,1.772 0.892,2.511 z"
     inkscape:connector-curvature="0" /></g><g
   transform="translate(300.2241,346.4434)"
   id="g32"><path
     id="path34"
     style="fill:#552528;fill-opacity:1;fill-rule:nonzero;stroke:none"
     d="M 0,0 C 1.903,1.093 4.333,0.437 5.426,-1.467 6.519,-3.369 5.863,-5.8 3.96,-6.893 l -9.905,-5.718 v -41.287 h -7.983 v 43.572 h 0.017 c 10e-4,1.376 0.717,2.712 1.994,3.446 z"
     inkscape:connector-curvature="0" /></g><g
   transform="translate(246.2124,394.6924)"
   id="g36"><path
     id="path38"
     style="fill:#fbc707;fill-opacity:1;fill-rule:evenodd;stroke:none"
     d="m 0,0 c 6.672,0 12.083,-5.411 12.083,-12.083 0,-6.672 -5.411,-12.083 -12.083,-12.083 -6.671,0 -12.083,5.411 -12.083,12.083 C -12.083,-5.411 -6.671,0 0,0"
     inkscape:connector-curvature="0" /></g><g
   transform="translate(276.3521,409.084)"
   id="g40"><path
     id="path42"
     style="fill:#f89b5c;fill-opacity:1;fill-rule:evenodd;stroke:none"
     d="m 0,0 c 5.022,0 9.097,-4.074 9.097,-9.097 0,-5.022 -4.075,-9.095 -9.097,-9.095 -5.022,0 -9.096,4.073 -9.096,9.095 C -9.096,-4.074 -5.022,0 0,0"
     inkscape:connector-curvature="0" /></g><g
   transform="translate(299.2964,388.4473)"
   id="g44"><path
     id="path46"
     style="fill:#ec008c;fill-opacity:1;fill-rule:evenodd;stroke:none"
     d="m 0,0 c 4.497,0 8.146,-3.648 8.146,-8.146 0,-4.497 -3.649,-8.145 -8.146,-8.145 -4.497,0 -8.146,3.648 -8.146,8.145 C -8.146,-3.648 -4.497,0 0,0"
     inkscape:connector-curvature="0" /></g><g
   transform="translate(317.4883,367.8115)"
   id="g48"><path
     id="path50"
     style="fill:#99d420;fill-opacity:1;fill-rule:evenodd;stroke:none"
     d="M 0,0 C 6.297,0 11.404,-5.108 11.404,-11.404 11.404,-17.7 6.297,-22.809 0,-22.809 c -6.295,0 -11.404,5.109 -11.404,11.405 C -11.404,-5.108 -6.295,0 0,0"
     inkscape:connector-curvature="0" /></g><g
   transform="translate(351.4297,377.3145)"
   id="g52"><path
     id="path54"
     style="fill:#66ccce;fill-opacity:1;fill-rule:evenodd;stroke:none"
     d="m 0,0 c 5.098,0 9.232,-4.135 9.232,-9.231 0,-5.097 -4.134,-9.232 -9.232,-9.232 -5.096,0 -9.232,4.135 -9.232,9.232 C -9.232,-4.135 -5.096,0 0,0"
     inkscape:connector-curvature="0" /></g><g
   transform="translate(325.9063,385.7324)"
   id="g56"><path
     id="path58"
     style="fill:#fff766;fill-opacity:1;fill-rule:evenodd;stroke:none"
     d="m 0,0 c 2.698,0 4.888,-2.189 4.888,-4.888 0,-2.698 -2.19,-4.887 -4.888,-4.887 -2.699,0 -4.888,2.189 -4.888,4.887 C -4.888,-2.189 -2.699,0 0,0"
     inkscape:connector-curvature="0" /></g><g
   transform="translate(317.2168,410.9844)"
   id="g60"><path
     id="path62"
     style="fill:#f47216;fill-opacity:1;fill-rule:evenodd;stroke:none"
     d="m 0,0 c 2.699,0 4.889,-2.189 4.889,-4.888 0,-2.698 -2.19,-4.886 -4.889,-4.886 -2.697,0 -4.887,2.188 -4.887,4.886 C -4.887,-2.189 -2.697,0 0,0"
     inkscape:connector-curvature="0" /></g><g
   transform="translate(343.5547,401.21)"
   id="g64"><path
     id="path66"
     style="fill:#99daa2;fill-opacity:1;fill-rule:evenodd;stroke:none"
     d="m 0,0 c 2.699,0 4.889,-2.189 4.889,-4.888 0,-2.698 -2.19,-4.887 -4.889,-4.887 -2.697,0 -4.887,2.189 -4.887,4.887 C -4.887,-2.189 -2.697,0 0,0"
     inkscape:connector-curvature="0" /></g><g
   transform="translate(275.9453,445.4688)"
   id="g68"><path
     id="path70"
     style="fill:#54a689;fill-opacity:1;fill-rule:evenodd;stroke:none"
     d="m 0,0 c 5.997,0 10.861,-4.864 10.861,-10.861 0,-5.998 -4.864,-10.862 -10.861,-10.862 -5.998,0 -10.861,4.864 -10.861,10.862 C -10.861,-4.864 -5.998,0 0,0"
     inkscape:connector-curvature="0" /></g><g
   transform="translate(240.1035,428.3623)"
   id="g72"><path
     id="path74"
     style="fill:#ed1c24;fill-opacity:1;fill-rule:evenodd;stroke:none"
     d="m 0,0 c 2.698,0 4.887,-2.189 4.887,-4.888 0,-2.698 -2.189,-4.887 -4.887,-4.887 -2.698,0 -4.888,2.189 -4.888,4.887 C -4.888,-2.189 -2.698,0 0,0"
     inkscape:connector-curvature="0" /></g><g
   transform="translate(216.4805,400.3945)"
   id="g76"><path
     id="path78"
     style="fill:#99d420;fill-opacity:1;fill-rule:evenodd;stroke:none"
     d="m 0,0 c 4.497,0 8.146,-3.648 8.146,-8.146 0,-4.497 -3.649,-8.145 -8.146,-8.145 -4.497,0 -8.146,3.648 -8.146,8.145 C -8.146,-3.648 -4.497,0 0,0"
     inkscape:connector-curvature="0" /></g><g
   transform="translate(225.8481,351.5195)"
   id="g80"><path
     id="path82"
     style="fill:#00adef;fill-opacity:1;fill-rule:evenodd;stroke:none"
     d="m 0,0 c 4.123,0 7.467,-3.344 7.467,-7.467 0,-4.123 -3.344,-7.467 -7.467,-7.467 -4.123,0 -7.467,3.344 -7.467,7.467 C -7.467,-3.344 -4.123,0 0,0"
     inkscape:connector-curvature="0" /></g><g
   transform="translate(191.4829,369.084)"
   id="g84"><path
     id="path86"
     style="fill:#99def9;fill-opacity:1;fill-rule:evenodd;stroke:none"
     d="M 0,0 C 6.296,0 11.404,-5.107 11.404,-11.404 11.404,-17.7 6.296,-22.809 0,-22.809 c -6.296,0 -11.404,5.109 -11.404,11.405 C -11.404,-5.107 -6.296,0 0,0"
     inkscape:connector-curvature="0" /></g><g
   transform="translate(190.4136,400.6836)"
   id="g88"><path
     id="path90"
     style="fill:#6e87cd;fill-opacity:1;fill-rule:evenodd;stroke:none"
     d="m 0,0 c 2.698,0 4.888,-2.189 4.888,-4.888 0,-2.698 -2.19,-4.887 -4.888,-4.887 -2.698,0 -4.887,2.189 -4.887,4.887 C -4.887,-2.189 -2.698,0 0,0"
     inkscape:connector-curvature="0" /></g>
        </g>
      </g>
    </g>
  </svg>