<?xml version="1.0" encoding="UTF-8" standalone="no"?>
<!-- Created with Inkscape (http://www.inkscape.org/) -->

<svg
   xmlns:dc="http://purl.org/dc/elements/1.1/"
   xmlns:cc="http://creativecommons.org/ns#"
   xmlns:rdf="http://www.w3.org/1999/02/22-rdf-syntax-ns#"
   xmlns:svg="http://www.w3.org/2000/svg"
   xmlns="http://www.w3.org/2000/svg"
   xmlns:sodipodi="http://sodipodi.sourceforge.net/DTD/sodipodi-0.dtd"
   xmlns:inkscape="http://www.inkscape.org/namespaces/inkscape"
   width="100mm"
   height="100mm"
   viewBox="0 0 100 100"
   version="1.1"
   id="svg2367"
   inkscape:version="0.92.5 (2060ec1f9f, 2020-04-08)"
   sodipodi:docname="logo2.svg">
  <defs
     id="defs2361" />
  <sodipodi:namedview
     id="base"
     pagecolor="#ffffff"
     bordercolor="#666666"
     borderopacity="1.0"
     inkscape:pageopacity="0.0"
     inkscape:pageshadow="2"
     inkscape:zoom="1.63"
     inkscape:cx="122.39487"
     inkscape:cy="176.6447"
     inkscape:document-units="mm"
     inkscape:current-layer="layer1"
     showgrid="false"
     inkscape:window-width="1920"
     inkscape:window-height="984"
     inkscape:window-x="0"
     inkscape:window-y="30"
     inkscape:window-maximized="1" />
  <metadata
     id="metadata2364">
    <rdf:RDF>
      <cc:Work
         rdf:about="">
        <dc:format>image/svg+xml</dc:format>
        <dc:type
           rdf:resource="http://purl.org/dc/dcmitype/StillImage" />
        <dc:title></dc:title>
      </cc:Work>
    </rdf:RDF>
  </metadata>
  <g
     inkscape:label="Layer 1"
     inkscape:groupmode="layer"
     id="layer1"
     transform="translate(0,-197)">
    <g
       id="g3263"
       transform="translate(1.2985685,2.2724949)">
      <path
         d="m 50.469698,285.31015 v 0 0 0 0"
         style="fill:#ffffff;fill-opacity:1;fill-rule:nonzero;stroke:none;stroke-width:0.03527778"
         id="path14"
         inkscape:connector-curvature="0" />
      <path
         d="m 79.874078,251.76592 c -0.394758,-1.29963 -1.505303,-2.49837 -2.874433,-2.74919 -0.843139,-0.15593 -1.680281,0.13194 -2.439459,0.4759 -0.335139,0.15134 -0.644877,0.31009 -0.945797,0.45825 0.675922,-0.53763 1.336322,-1.12324 1.957211,-1.78787 3.174647,-3.39867 3.66642,-8.67693 1.176161,-12.58359 -2.701219,-4.23862 -8.154458,-6.99241 -12.980811,-4.58646 -1.885949,0.94192 -3.505905,2.57281 -4.273197,4.5526 -0.392289,1.00788 -0.631472,2.08597 -0.60078,3.17076 0.03739,1.28552 0.450497,2.5146 1.106311,3.53131 1.31833,2.05175 3.609975,3.19087 5.708297,3.10691 1.049514,-0.0476 2.022828,-0.40216 2.807053,-0.93204 0.788811,-0.5274 1.386064,-1.23013 1.776236,-1.97414 0.382058,-0.74577 0.592666,-1.52577 0.58808,-2.25249 0.0046,-0.72672 -0.182739,-1.38253 -0.447322,-1.9184 -0.545042,-1.07809 -1.354667,-1.65453 -1.918758,-1.93146 -0.285397,-0.14393 -0.51682,-0.2219 -0.674511,-0.27093 -0.159456,-0.0434 -0.240242,-0.066 -0.240242,-0.066 0,0 0.08079,0.0229 0.239183,0.0688 0.156634,0.0504 0.386998,0.13335 0.670631,0.27763 0.554567,0.28716 1.360311,0.86854 1.870075,1.94804 0.250472,0.53305 0.418042,1.18287 0.398639,1.89054 -0.0127,0.70873 -0.23495,1.46438 -0.6223,2.18158 -0.394053,0.71331 -0.988836,1.37865 -1.757539,1.86901 -0.764117,0.49319 -1.70815,0.79411 -2.697339,0.80786 -2.475794,0.0346 -4.939241,-1.73813 -5.742164,-4.05729 -0.67698,-1.9551 -0.48895,-3.88832 0.504473,-5.70407 1.28905,-2.35973 4.072819,-4.15254 6.800144,-4.0386 7.221714,0.30233 12.003263,8.88577 7.239,14.67838 -2.403122,2.9203 -6.032147,4.5533 -9.386358,6.10976 -0.929923,0.43074 -1.960387,0.63888 -1.87572,0.23601 0.828322,-3.91866 -3.923241,-7.65387 -7.216422,-5.2197 -2.241903,1.65805 -1.780117,5.72064 1.036461,5.84129 3.523545,0.15099 2.770011,-3.35386 1.337381,-3.71193 0.547511,0.22613 1.734255,2.09127 0.189089,2.9771 -1.705328,0.97719 -3.420534,-0.4244 -3.411009,-2.28001 0.0071,-1.45944 1.020586,-2.80105 2.487436,-2.95839 3.893961,-0.41734 6.632575,4.86198 2.430639,7.36212 -0.682978,0.40569 -1.449564,0.63041 -2.182636,0.93098 -0.230364,0.0942 -0.465314,0.19367 -0.687916,0.2801 -5.46735,2.11208 -8.0264,4.40937 -8.0264,4.40937 l 2.757311,-2.69099 c -1.077384,-1.4044 -2.157942,-2.89771 -3.396897,-4.16207 -2.646186,-2.70051 -6.481586,-4.28695 -6.322484,-8.69138 0.03422,-0.94933 0.335492,-2.11843 0.900642,-2.90195 4.239683,-5.87869 12.266083,-2.47015 10.344855,3.42935 -0.220486,0.67557 -1.778352,3.46816 -5.38868,2.63807 -3.523897,-0.81068 -2.449689,-5.91679 1.014236,-6.09953 -4.670072,-0.13723 -4.767439,5.9235 -1.014236,6.92821 1.987903,0.53199 4.343753,-0.25118 5.501216,-1.95968 2.299406,-3.39126 0.894645,-7.12894 -2.184752,-8.6293 -2.467681,-1.20262 -5.785203,-0.43357 -7.820025,1.09255 -2.052814,1.53917 -3.564819,4.43548 -3.052586,7.0097 0.167922,0.84384 -3.870678,-0.70521 -6.473119,-2.54142 l 0.0021,-0.0349 c 0,0 -0.03351,0 -0.05009,0 -4.05377,-2.86491 -7.392811,-5.95418 -8.620125,-10.20763 -1.606197,-5.57177 0.959556,-9.83861 3.032478,-12.06147 4.237919,-4.54307 11.796536,-5.91044 16.60278,-1.43192 3.29318,3.06881 4.818591,8.56826 1.982611,12.43788 -2.294819,3.13232 -6.446661,4.96782 -10.158589,3.12385 -2.785886,-1.38465 -4.604455,-4.81859 -3.636786,-7.87647 0.252942,-0.82303 0.671336,-1.52082 1.142647,-2.0641 0.954264,-1.09396 2.057048,-1.56598 2.796823,-1.77553 0.375355,-0.10513 0.673452,-0.14429 0.873125,-0.17357 0.199672,-0.0173 0.303388,-0.0286 0.303388,-0.0286 0,0 -0.103716,0.006 -0.3048,0.0183 -0.200024,0.0219 -0.500591,0.0511 -0.882649,0.14535 -0.751417,0.18273 -1.885245,0.61912 -2.90442,1.70779 -0.502708,0.54152 -0.960261,1.24531 -1.254478,2.09515 -0.299508,0.8509 -0.402872,1.84115 -0.259291,2.87584 0.134055,1.03223 0.508705,2.1075 1.150761,3.09528 2.329744,3.58245 7.201252,4.23227 10.794647,2.25354 6.310136,-3.4738 6.196541,-12.22163 1.390297,-16.92098 -2.448983,-2.39466 -5.87375,-3.67736 -9.297105,-3.46393 -1.659114,0.10336 -3.278364,0.46919 -4.821061,1.09079 0.04939,-0.0543 0.100894,-0.10195 0.149225,-0.15875 3.448402,-4.09998 -3.395839,-9.83686 -6.989939,-6.03285 -0.783872,0.82902 -1.154642,1.98578 -1.03505,3.05576 0.0642,0.53763 0.267405,1.04563 0.573264,1.46367 0.304094,0.41875 0.705203,0.74895 1.145822,0.96556 0.439914,0.21872 0.917928,0.31926 1.376539,0.31926 0.461433,-0.002 0.902758,-0.12806 1.268236,-0.34749 1.68663,-1.01212 1.389239,-3.66712 -0.604308,-4.07952 0.08431,0.007 0.168627,0.0187 0.25153,0.0367 0.252236,0.0561 0.633236,0.19332 0.976136,0.54363 1.407936,1.43545 -0.07655,3.79236 -1.891594,3.7592 -2.922058,-0.0547 -3.760611,-3.65831 -1.886303,-5.55096 3.334808,-3.36761 9.565569,1.85385 6.360583,5.47758 -0.300919,0.33655 -0.645583,0.63218 -0.993775,0.90311 -0.34925,0.2727 -0.703086,0.52529 -1.04775,0.76588 -3.903838,2.73615 -6.62305,6.69573 -7.124347,11.5182 -0.192264,1.84503 0.138995,4.21851 0.354189,5.03343 0.428272,1.63513 1.211086,3.13126 2.137481,4.39738 0.820561,1.12112 1.73743,2.07609 2.661355,2.93722 -0.389466,-0.1718 -0.801158,-0.3369 -1.252361,-0.4512 -0.494594,-0.12277 -1.042105,-0.17639 -1.587853,-0.0759 -4.220633,0.77753 -5.173838,7.64999 -0.818797,8.99125 1.087967,0.34572 2.290586,0.17886 3.203222,-0.39335 0.456495,-0.29068 0.8255,-0.69391 1.069622,-1.15146 0.245181,-0.45509 0.370064,-0.95921 0.373945,-1.45062 0.0063,-0.4886 -0.110067,-0.9645 -0.309739,-1.37725 -0.201083,-0.41557 -0.505883,-0.75953 -0.862189,-0.99377 -0.353836,-0.23672 -0.752828,-0.3676 -1.138414,-0.40535 -0.386644,-0.0332 -0.757414,0.0205 -1.080558,0.14112 -0.324203,0.11818 -0.599017,0.30127 -0.8001,0.51999 -0.203906,0.21625 -0.341136,0.46179 -0.421569,0.6925 -0.163337,0.4692 -0.116417,0.87207 -0.05398,1.1236 0.0321,0.12841 0.0702,0.2219 0.0956,0.28469 0.02858,0.0614 0.04163,0.0931 0.04163,0.0931 0,0 -0.01305,-0.0317 -0.04022,-0.0931 -0.02505,-0.0646 -0.06174,-0.15769 -0.09172,-0.28575 -0.05962,-0.25153 -0.101247,-0.65334 0.06668,-1.11725 0.0829,-0.2286 0.220486,-0.46672 0.422628,-0.67945 1.102783,-1.15817 3.149247,-0.63535 3.782836,0.75742 0.187325,0.40463 0.289278,0.86571 0.274461,1.33738 -0.01411,0.47272 -0.142522,0.95391 -0.386292,1.38324 -0.242005,0.43215 -0.60078,0.8068 -1.034344,1.07174 -0.878769,0.52529 -2.025297,0.66216 -3.036358,0.31256 -2.137833,-0.74119 -3.023658,-3.25367 -2.345972,-5.3019 0.454025,-1.37971 1.687688,-2.70686 3.178527,-2.91712 0.454378,-0.0684 0.911225,-0.009 1.345848,0.11395 2.020358,0.57961 3.735916,1.88877 5.380213,3.14854 4.150078,3.18029 8.609542,6.28368 12.016317,10.29653 2.441575,2.87549 3.436055,6.64809 3.779308,10.33074 0.439208,4.693 0.561975,10.41788 -1.470378,14.78315 -1.698625,3.64737 -5.072591,5.69666 -8.706555,7.08202 -1.755775,0.66886 -4.734983,2.18722 -6.615642,2.08774 4.912784,0.26317 10.043583,-1.54764 15.24635,-0.87525 1.535994,0.20003 2.524125,0.91476 3.345392,1.07633 1.343377,0.26141 2.265891,-2.65042 10.103908,-1.34091 -0.646289,-1.11901 -1.326445,-1.5935 -2.144889,-2.9404 -2.615495,-4.3053 -5.460294,-18.16382 -2.776361,-22.22888 1.863372,-1.19133 1.072444,-2.71427 3.221214,-3.81494 0.289277,-0.14711 0.543277,-0.33338 0.813505,-0.49989 2.261306,-1.39594 4.769556,-2.32586 7.115175,-3.5627 2.202039,-1.16064 4.325055,-2.45921 6.611408,-3.45652 0.531989,-0.23248 1.103489,-0.53833 1.707445,-0.87771 0.913341,-0.51188 1.983669,-1.17827 3.078338,-1.01459 1.22555,0.18451 2.249311,1.26824 2.622903,2.40595 0.413456,1.24777 0.164747,2.76401 -0.808567,3.69323 -0.319616,0.30586 -0.707672,0.5394 -1.125361,0.6798 -0.834672,0.28928 -1.779411,0.17674 -2.503663,-0.25717 -0.35807,-0.21802 -0.654756,-0.52776 -0.854075,-0.88371 -0.200731,-0.35348 -0.307975,-0.75001 -0.3175,-1.13947 -0.04198,-1.39806 1.26118,-2.65078 2.689225,-2.14172 0.263877,0.091 0.490008,0.23707 0.655813,0.41205 0.166864,0.17603 0.280459,0.37288 0.349956,0.56479 0.112536,0.31257 0.122414,0.65511 0.04233,0.97579 0.411339,-1.64007 -1.573389,-2.6282 -2.865966,-1.76671 -0.294217,0.19402 -0.544689,0.47695 -0.712259,0.82056 -0.164041,0.33972 -0.259997,0.73166 -0.254352,1.13524 0.0032,0.40499 0.104775,0.82162 0.309033,1.19697 0.928158,1.72015 3.394075,1.80799 4.748389,0.57538 1.074561,-0.9786 1.38818,-2.60844 0.974372,-3.9684"
         style="fill:#2d1b14;fill-opacity:1;fill-rule:nonzero;stroke:none;stroke-width:0.03527778"
         id="path796"
         inkscape:connector-curvature="0" />
      <path
         d="m 54.063798,237.83755 c 0.244122,-0.49424 0.6477,-1.3589 1.423105,-1.66617 0.632531,-0.25047 1.199798,-0.0265 1.369484,0.40429 0.05644,0.1404 0.0508,0.29457 0,0.44767 -0.08043,0.10442 -0.678392,0.83714 -1.86055,1.15006 0,0 1.193094,-0.0131 2.034116,-0.72849 0.137937,0.0765 0.242712,0.1838 0.296687,0.32173 0.17145,0.42969 -0.203553,0.98037 -0.835025,1.23261 -1.376187,0.54328 -3.071637,-0.37536 -3.071637,-0.37536 0,0 0.372181,-0.23671 0.64382,-0.78634"
         style="fill:#eb1d27;fill-opacity:1;fill-rule:nonzero;stroke:none;stroke-width:0.03527778"
         id="path798"
         inkscape:connector-curvature="0" />
      <path
         d="m 17.116677,218.74698 c 1.115483,-0.12206 3.040591,-0.37712 4.416072,0.61419 1.122186,0.81174 1.361016,2.02883 0.81033,2.79329 -0.18168,0.25048 -0.450497,0.4124 -0.769055,0.49037 -0.268111,-0.0233 -2.181931,-0.24624 -4.013553,-1.93217 0,0 1.329619,2.03447 3.480153,2.69522 0.02117,0.3175 -0.04833,0.6156 -0.22472,0.86008 -0.551391,0.76552 -1.907116,0.72742 -3.031066,-0.0843 -2.441223,-1.76318 -2.723798,-5.67901 -2.723798,-5.67901 0,0 0.814212,0.37853 2.055637,0.24235"
         style="fill:#3779c6;fill-opacity:1;fill-rule:nonzero;stroke:none;stroke-width:0.03527778"
         id="path800"
         inkscape:connector-curvature="0" />
      <path
         d="m 48.914654,207.54805 c 0.352777,1.06398 1.008238,2.89243 0.325966,4.44571 -0.556683,1.26824 -1.697214,1.75719 -2.55905,1.37936 -0.282927,-0.12453 -0.49918,-0.35419 -0.641702,-0.6477 -0.03457,-0.26882 -0.217312,-2.18581 1.046338,-4.33176 0,0 -1.709913,1.72685 -1.903941,3.96946 -0.305506,0.0882 -0.612775,0.0832 -0.888295,-0.0381 -0.862541,-0.37853 -1.110897,-1.71344 -0.554214,-2.98239 1.209323,-2.75695 4.979106,-3.85656 4.979106,-3.85656 0,0 -0.197908,0.87524 0.195792,2.06198"
         style="fill:#7ecb2a;fill-opacity:1;fill-rule:nonzero;stroke:none;stroke-width:0.03527778"
         id="path802"
         inkscape:connector-curvature="0" />
      <path
         d="m 37.206312,201.16101 c 0.354542,1.06469 1.010003,2.89419 0.327731,4.44747 -0.555978,1.26824 -1.696861,1.75683 -2.560461,1.37936 -0.283281,-0.12453 -0.497417,-0.35454 -0.640292,-0.64981 -0.03422,-0.2667 -0.218369,-2.1844 1.045633,-4.32894 0,0 -1.709561,1.72508 -1.902883,3.9691 -0.307269,0.0868 -0.612422,0.0818 -0.889705,-0.0399 -0.862189,-0.37712 -1.109839,-1.71309 -0.554567,-2.97992 1.211439,-2.75801 4.980869,-3.85762 4.980869,-3.85762 0,0 -0.199319,0.87454 0.193675,2.06022"
         style="fill:#e21059;fill-opacity:1;fill-rule:nonzero;stroke:none;stroke-width:0.03527778"
         id="path804"
         inkscape:connector-curvature="0" />
      <path
         d="m 67.035789,202.52097 c 0.409223,1.23155 1.166989,3.34398 0.376414,5.13856 -0.642055,1.46438 -1.959328,2.02953 -2.954514,1.59173 -0.328083,-0.14322 -0.575027,-0.40816 -0.741891,-0.74683 -0.03916,-0.31079 -0.250473,-2.52588 1.207911,-5.00344 0,0 -1.97485,1.9946 -2.197806,4.5854 -0.353836,0.10019 -0.707319,0.0963 -1.027994,-0.0448 -0.995892,-0.43815 -1.283053,-1.97944 -0.639233,-3.44488 1.397,-3.18558 5.752747,-4.45558 5.752747,-4.45558 0,0 -0.230364,1.0093 0.224366,2.37984"
         style="fill:#f58614;fill-opacity:1;fill-rule:nonzero;stroke:none;stroke-width:0.03527778"
         id="path806"
         inkscape:connector-curvature="0" />
      <path
         d="m 70.58297,208.40742 c -0.263172,0.79128 -0.7493,2.14948 -0.242359,3.29988 0.413456,0.94051 1.258359,1.30422 1.89865,1.02271 0.210609,-0.0914 0.370064,-0.26176 0.47625,-0.47978 0.0254,-0.20038 0.160514,-1.62137 -0.777169,-3.2131 0,0 1.269294,1.27882 1.411464,2.94428 0.229305,0.0642 0.45473,0.0631 0.661105,-0.0275 0.640292,-0.28293 0.824442,-1.27247 0.410986,-2.21263 -0.896055,-2.04717 -3.694288,-2.86279 -3.694288,-2.86279 0,0 0.146402,0.64911 -0.144639,1.52894"
         style="fill:#7ecb2a;fill-opacity:1;fill-rule:nonzero;stroke:none;stroke-width:0.03527778"
         id="path808"
         inkscape:connector-curvature="0" />
      <path
         d="m 93.047858,230.58127 c -0.568325,-0.1771 -1.545872,-0.50836 -2.362905,-0.12983 -0.665692,0.30727 -0.914753,0.91723 -0.70485,1.3709 0.06844,0.14958 0.190852,0.26141 0.348897,0.33443 0.143228,0.0166 1.16205,0.0942 2.286353,-0.5969 0,0 -0.898525,0.92428 -2.085623,1.0474 -0.04374,0.16369 -0.03916,0.32632 0.02822,0.47166 0.211314,0.45579 0.920397,0.57362 1.587852,0.26529 1.451681,-0.66816 1.997781,-2.68076 1.997781,-2.68076 0,0 -0.461786,0.11466 -1.095728,-0.0822"
         style="fill:#e21059;fill-opacity:1;fill-rule:nonzero;stroke:none;stroke-width:0.03527778"
         id="path810"
         inkscape:connector-curvature="0" />
      <path
         d="m 77.511172,215.5046 c 0.353484,1.06504 1.008592,2.8949 0.327378,4.44747 -0.557036,1.26753 -1.698625,1.75825 -2.559403,1.37901 -0.28328,-0.12382 -0.499886,-0.35313 -0.642055,-0.64805 -0.03387,-0.26741 -0.217311,-2.18511 1.046339,-4.33 0,0 -1.710267,1.7265 -1.902884,3.96946 -0.307269,0.0868 -0.61348,0.0833 -0.889705,-0.0395 -0.863247,-0.37853 -1.112308,-1.71274 -0.553861,-2.98097 1.209675,-2.75837 4.978753,-3.85692 4.978753,-3.85692 0,0 -0.19685,0.87453 0.195438,2.05951"
         style="fill:#eb1d27;fill-opacity:1;fill-rule:nonzero;stroke:none;stroke-width:0.03527778"
         id="path812"
         inkscape:connector-curvature="0" />
      <path
         d="m 84.567786,220.14081 c 0.352778,1.06539 1.009297,2.89419 0.326672,4.44676 -0.556683,1.26859 -1.697919,1.75684 -2.559402,1.37831 -0.283281,-0.12312 -0.498828,-0.35278 -0.641703,-0.64841 -0.03422,-0.26564 -0.217664,-2.18299 1.045633,-4.32858 0,0 -1.709208,1.72579 -1.903589,3.96945 -0.304447,0.0864 -0.611364,0.0811 -0.888647,-0.0402 -0.862542,-0.37818 -1.110897,-1.71309 -0.553861,-2.98098 1.209322,-2.75695 4.979811,-3.85762 4.979811,-3.85762 0,0 -0.200025,0.87595 0.195086,2.06128"
         style="fill:#3779c6;fill-opacity:1;fill-rule:nonzero;stroke:none;stroke-width:0.03527778"
         id="path814"
         inkscape:connector-curvature="0" />
      <path
         d="m 92.565611,245.68721 c -1.187097,0.10583 -3.236736,0.33973 -4.675011,-0.7433 -1.177219,-0.88406 -1.404408,-2.18052 -0.802569,-2.98133 0.19685,-0.26282 0.485775,-0.42897 0.824794,-0.50588 0.285397,0.0303 2.311047,0.30762 4.221692,2.13466 0,0 -1.368778,-2.18581 -3.640667,-2.93264 -0.01446,-0.33655 0.06491,-0.65299 0.25788,-0.90876 0.600781,-0.80045 2.04082,-0.73342 3.215217,0.15134 2.555169,1.91982 2.776361,6.08436 2.776361,6.08436 0,0 -0.855486,-0.41733 -2.177697,-0.29845"
         style="fill:#3779c6;fill-opacity:1;fill-rule:nonzero;stroke:none;stroke-width:0.03527778"
         id="path816"
         inkscape:connector-curvature="0" />
      <path
         d="m 19.739226,208.33122 c 0.836084,0.74789 2.312459,2.01013 2.492375,3.69746 0.147462,1.37654 -0.600427,2.36785 -1.5367,2.46768 -0.309033,0.0339 -0.607836,-0.0593 -0.879475,-0.24306 -0.162277,-0.2166 -1.274233,-1.78964 -1.241425,-4.27884 0,0 -0.626886,2.34703 0.318912,4.39032 -0.221898,0.22754 -0.491067,0.37606 -0.792339,0.40746 -0.93592,0.0998 -1.813984,-0.93592 -1.961797,-2.31211 -0.3175,-2.99402 2.407708,-5.82083 2.407708,-5.82083 0,0 0.262114,0.8569 1.192741,1.69192"
         style="fill:#7ecb2a;fill-opacity:1;fill-rule:nonzero;stroke:none;stroke-width:0.03527778"
         id="path818"
         inkscape:connector-curvature="0" />
      <path
         d="m 8.00866,222.40529 c 0.6632223,-0.74154 1.7801167,-2.05387 3.276247,-2.21544 1.220611,-0.13265 2.100792,0.5281 2.190397,1.35925 0.02999,0.2734 -0.05186,0.53904 -0.214841,0.77893 -0.190853,0.14535 -1.585031,1.13277 -3.7923613,1.10913 0,0 2.0828003,0.55104 3.8932553,-0.29104 0.202847,0.19791 0.334433,0.43533 0.362303,0.70274 0.09066,0.82973 -0.826911,1.61078 -2.047169,1.74342 -2.6546532,0.28611 -5.1657254,-2.12583 -5.1657254,-2.12583 0,0 0.7595306,-0.23495 1.4978944,-1.06116"
         style="fill:#7ecb2a;fill-opacity:1;fill-rule:nonzero;stroke:none;stroke-width:0.03527778"
         id="path820"
         inkscape:connector-curvature="0" />
      <path
         d="m 3.3773935,229.44885 c 0.5072944,-0.56974 1.3648972,-1.57551 2.5124833,-1.70004 0.9362722,-0.10124 1.6107833,0.40605 1.6795749,1.04352 0.022931,0.2092 -0.039158,0.4131 -0.1647472,0.59796 -0.1464028,0.11042 -1.2149666,0.86713 -2.9090055,0.85019 0,0 1.5984361,0.42263 2.9866166,-0.22295 0.155575,0.15063 0.2564695,0.33337 0.2772833,0.53834 0.06985,0.63711 -0.6342944,1.23507 -1.569861,1.33632 -2.0362333,0.22013 -3.9620472,-1.63019 -3.9620472,-1.63019 0,0 0.5824361,-0.17886 1.1497028,-0.81315"
         style="fill:#e21059;fill-opacity:1;fill-rule:nonzero;stroke:none;stroke-width:0.03527778"
         id="path822"
         inkscape:connector-curvature="0" />
      <path
         d="m 11.889216,239.95598 c 0.153105,-0.47378 0.399697,-1.30139 1.052336,-1.67675 0.533047,-0.30833 1.069975,-0.18344 1.279172,0.17886 0.06914,0.11959 0.08467,0.25823 0.05997,0.40111 -0.05891,0.10513 -0.497769,0.8382 -1.514475,1.27458 0,0 1.066094,-0.16827 1.725436,-0.92004 0.132645,0.0494 0.241653,0.13088 0.30727,0.24906 0.210255,0.36054 -0.05186,0.90382 -0.584906,1.21144 -1.158169,0.66922 -2.798233,0.0723 -2.798233,0.0723 0,0 0.301272,-0.26212 0.473428,-0.79058"
         style="fill:#e21059;fill-opacity:1;fill-rule:nonzero;stroke:none;stroke-width:0.03527778"
         id="path824"
         inkscape:connector-curvature="0" />
      <path
         d="m 15.625485,227.53997 c 0.656519,-0.23036 1.785055,-0.65405 2.755194,-0.24553 0.791634,0.33302 1.105253,1.03646 0.87877,1.57409 -0.07408,0.17639 -0.213431,0.31115 -0.395817,0.40323 -0.164747,0.0236 -1.353255,0.15557 -2.694869,-0.60643 0,0 1.086202,1.04281 2.479322,1.14018 0.05715,0.19015 0.05715,0.38029 -0.01658,0.5528 -0.225778,0.53869 -1.050925,0.70591 -1.842205,0.37253 -1.722261,-0.72566 -2.439459,-3.05258 -2.439459,-3.05258 0,0 0.544689,0.11606 1.275645,-0.13829"
         style="fill:#f58614;fill-opacity:1;fill-rule:nonzero;stroke:none;stroke-width:0.03527778"
         id="path826"
         inkscape:connector-curvature="0" />
      <path
         d="m 68.63105,214.02153 c 0.179917,0.54539 0.514703,1.47955 0.16757,2.27365 -0.28575,0.64629 -0.866422,0.89641 -1.307395,0.70203 -0.144638,-0.0624 -0.254705,-0.17957 -0.328436,-0.33056 -0.01623,-0.13476 -0.112183,-1.11548 0.532695,-2.21085 0,0 -0.870303,0.88194 -0.970845,2.02635 -0.154516,0.043 -0.312208,0.043 -0.452614,-0.0201 -0.44203,-0.19332 -0.568325,-0.87418 -0.283986,-1.52294 0.619125,-1.40688 2.543528,-1.96885 2.543528,-1.96885 0,0 -0.103011,0.44626 0.09948,1.05128"
         style="fill:#e21059;fill-opacity:1;fill-rule:nonzero;stroke:none;stroke-width:0.03527778"
         id="path828"
         inkscape:connector-curvature="0" />
      <path
         d="m 40.585218,228.0522 c 0.634647,0.46355 1.755422,1.24213 1.998839,2.40313 0.197202,0.95038 -0.252237,1.69333 -0.899584,1.82844 -0.210608,0.0459 -0.427919,0.002 -0.629708,-0.10795 -0.126647,-0.13758 -1.014589,-1.1557 -1.1684,-2.89383 0,0 -0.269875,1.67887 0.533047,3.03741 -0.140405,0.17357 -0.315383,0.29739 -0.523522,0.34079 -0.646995,0.13546 -1.330678,-0.52388 -1.531056,-1.47532 -0.430036,-2.06481 1.27,-4.22734 1.27,-4.22734 0,0 0.241653,0.57962 0.950384,1.09467"
         style="fill:#e21059;fill-opacity:1;fill-rule:nonzero;stroke:none;stroke-width:0.03527778"
         id="path830"
         inkscape:connector-curvature="0" />
      <path
         d="m 32.315754,221.48525 c 0.517172,0.24941 1.420989,0.65898 1.749778,1.46014 0.265994,0.65546 0.04092,1.24778 -0.404284,1.42946 -0.144991,0.0586 -0.306211,0.0582 -0.465666,0.006 -0.108656,-0.0836 -0.879828,-0.69639 -1.218142,-1.92229 0,0 0.02681,1.23966 0.781403,2.10714 -0.07796,0.14323 -0.186972,0.25471 -0.330906,0.31151 -0.446264,0.18344 -1.02235,-0.20038 -1.291519,-0.85514 -0.58032,-1.4231 0.353483,-3.19652 0.353483,-3.19652 0,0 0.250825,0.38347 0.825853,0.65935"
         style="fill:#7ecb2a;fill-opacity:1;fill-rule:nonzero;stroke:none;stroke-width:0.03527778"
         id="path832"
         inkscape:connector-curvature="0" />
      <path
         d="m 28.784096,229.32891 c 0.271639,-0.33444 0.728839,-0.92534 1.370541,-1.02588 0.525639,-0.0822 0.919692,0.18626 0.975078,0.54328 0.0187,0.11677 -0.01023,0.23424 -0.0762,0.34078 -0.07938,0.066 -0.6604,0.52211 -1.614664,0.5588 0,0 0.91052,0.19403 1.674636,-0.20743 0.09102,0.0815 0.154164,0.18062 0.170745,0.29562 0.05785,0.35737 -0.322792,0.71226 -0.848078,0.79622 -1.141942,0.17886 -2.276122,-0.81068 -2.276122,-0.81068 0,0 0.322791,-0.11748 0.624064,-0.49071"
         style="fill:#5d2790;fill-opacity:1;fill-rule:nonzero;stroke:none;stroke-width:0.03527778"
         id="path834"
         inkscape:connector-curvature="0" />
      <path
         d="m 30.826326,236.14563 c 0.09701,-0.56621 0.242359,-1.5494 0.921809,-2.08562 0.55633,-0.43603 1.187802,-0.38312 1.484136,-0.004 0.09843,0.12347 0.140405,0.27869 0.134408,0.44626 -0.04939,0.127 -0.425803,1.03717 -1.510947,1.69968 0,0 1.184627,-0.36865 1.810455,-1.33173 0.159103,0.036 0.295275,0.10936 0.391231,0.23248 0.297744,0.37782 0.08925,1.03752 -0.466372,1.47567 -1.207911,0.95038 -3.170767,0.54186 -3.170767,0.54186 0,0 0.300214,-0.34537 0.406047,-0.97437"
         style="fill:#f58614;fill-opacity:1;fill-rule:nonzero;stroke:none;stroke-width:0.03527778"
         id="path836"
         inkscape:connector-curvature="0" />
      <path
         d="m 51.525562,234.96735 c -0.572206,-0.0522 -1.563511,-0.121 -2.150533,-0.75529 -0.478014,-0.52035 -0.474487,-1.15394 -0.12065,-1.4785 0.113947,-0.109 0.265994,-0.16298 0.433563,-0.16898 0.12947,0.0381 1.067153,0.34149 1.812925,1.3716 0,0 -0.459316,-1.15111 -1.468966,-1.69968 0.02222,-0.16122 0.08537,-0.30409 0.20073,-0.40746 0.352778,-0.32808 1.027995,-0.1718 1.509536,0.3489 1.041753,1.12854 0.787753,3.1182 0.787753,3.1182 0,0 -0.368653,-0.27093 -1.004358,-0.32879"
         style="fill:#3779c6;fill-opacity:1;fill-rule:nonzero;stroke:none;stroke-width:0.03527778"
         id="path838"
         inkscape:connector-curvature="0" />
      <path
         d="m 65.457814,239.89566 c 0.09701,-0.56445 0.243064,-1.5487 0.921809,-2.08351 0.55633,-0.43709 1.18745,-0.38311 1.485194,-0.005 0.09701,0.12277 0.140406,0.27835 0.132645,0.44556 -0.04833,0.12736 -0.424039,1.03576 -1.510595,1.69969 0,0 1.184628,-0.3683 1.810456,-1.33068 0.160161,0.0346 0.296686,0.1083 0.391583,0.23213 0.298097,0.37747 0.0896,1.03893 -0.467078,1.47567 -1.207558,0.95108 -3.170061,0.5408 -3.170061,0.5408 0,0 0.300214,-0.34466 0.406047,-0.97472"
         style="fill:#f58614;fill-opacity:1;fill-rule:nonzero;stroke:none;stroke-width:0.03527778"
         id="path840"
         inkscape:connector-curvature="0" />
      <path
         d="m 74.052892,240.08404 c -0.376767,0.26529 -1.016353,0.74013 -1.704975,0.65864 -0.562681,-0.0684 -0.890058,-0.45614 -0.844903,-0.8382 0.01482,-0.12559 0.07867,-0.23742 0.178153,-0.32879 0.09737,-0.0441 0.828322,-0.34678 1.818217,-0.10725 0,0 -0.87877,-0.46249 -1.780823,-0.27234 -0.06879,-0.11007 -0.105833,-0.22789 -0.08925,-0.35242 0.04586,-0.38418 0.53728,-0.63994 1.100666,-0.57327 1.225197,0.1464 2.104672,1.49225 2.104672,1.49225 0,0 -0.36583,0.024 -0.781755,0.32138"
         style="fill:#3779c6;fill-opacity:1;fill-rule:nonzero;stroke:none;stroke-width:0.03527778"
         id="path842"
         inkscape:connector-curvature="0" />
      <path
         d="m 45.283512,201.86022 c 0.188031,0.56762 0.536222,1.54164 0.175331,2.36961 -0.29845,0.67662 -0.905228,0.93697 -1.364545,0.73448 -0.151342,-0.0656 -0.2667,-0.18697 -0.343253,-0.34608 -0.01658,-0.1404 -0.115358,-1.16346 0.558095,-2.30681 0,0 -0.911225,0.92146 -1.013531,2.11631 -0.164041,0.0452 -0.32773,0.0434 -0.473427,-0.0205 -0.460375,-0.20214 -0.59302,-0.9144 -0.295981,-1.58997 0.64523,-1.46896 2.653594,-2.05528 2.653594,-2.05528 0,0 -0.106891,0.46567 0.103717,1.0982"
         style="fill:#5d2790;fill-opacity:1;fill-rule:nonzero;stroke:none;stroke-width:0.03527778"
         id="path844"
         inkscape:connector-curvature="0" />
      <path
         d="m 18.562713,239.00878 c 0.497416,0.0699 1.363838,0.17533 1.849966,0.75917 0.396875,0.47802 0.364772,1.03364 0.04022,1.30387 -0.106539,0.0892 -0.242358,0.13053 -0.38982,0.12771 -0.112536,-0.0399 -0.920397,-0.35067 -1.526822,-1.288 0,0 0.349603,1.03329 1.210734,1.56034 -0.02681,0.13935 -0.08996,0.26211 -0.194381,0.3489 -0.324203,0.26987 -0.909814,0.10195 -1.307042,-0.37501 -0.864305,-1.03963 -0.549627,-2.77283 -0.549627,-2.77283 0,0 0.310797,0.25471 0.866775,0.33585"
         style="fill:#5d2790;fill-opacity:1;fill-rule:nonzero;stroke:none;stroke-width:0.03527778"
         id="path846"
         inkscape:connector-curvature="0" />
      <path
         d="m 31.549873,249.52155 c -0.498122,-0.0695 -1.364191,-0.17497 -1.85173,-0.75917 -0.395464,-0.47872 -0.363008,-1.03364 -0.03951,-1.30422 0.10795,-0.0889 0.242358,-0.13088 0.390525,-0.12806 0.112536,0.0402 0.918986,0.35101 1.527175,1.28905 0,0 -0.350309,-1.03294 -1.210734,-1.56069 0.02611,-0.1397 0.08996,-0.26141 0.192617,-0.34925 0.325261,-0.26988 0.91052,-0.10231 1.308453,0.375 0.863953,1.03928 0.549628,2.77389 0.549628,2.77389 0,0 -0.311503,-0.25611 -0.866423,-0.33655"
         style="fill:#5d2790;fill-opacity:1;fill-rule:nonzero;stroke:none;stroke-width:0.03527778"
         id="path848"
         inkscape:connector-curvature="0" />
      <path
         d="m 70.061917,221.10389 c 0.353131,1.06398 1.007181,2.89349 0.326672,4.44747 -0.557389,1.26859 -1.698272,1.75613 -2.561166,1.37795 -0.282223,-0.12382 -0.49777,-0.35348 -0.639939,-0.64876 -0.03422,-0.26705 -0.21837,-2.1844 1.045986,-4.32929 0,0 -1.709561,1.72756 -1.903589,3.96911 -0.306917,0.0861 -0.613128,0.0829 -0.888647,-0.0392 -0.862895,-0.37924 -1.112309,-1.71344 -0.554214,-2.98097 1.208969,-2.75837 4.979458,-3.85728 4.979458,-3.85728 0,0 -0.200025,0.87525 0.195439,2.06093"
         style="fill:#7ecb2a;fill-opacity:1;fill-rule:nonzero;stroke:none;stroke-width:0.03527778"
         id="path850"
         inkscape:connector-curvature="0" />
      <path
         d="m 51.96089,215.85915 c 0.0127,0.71543 0.06244,1.95509 -0.648406,2.77142 -0.580672,0.66639 -1.369836,0.74612 -1.822803,0.35066 -0.14993,-0.12947 -0.236008,-0.31115 -0.2667,-0.51647 0.03069,-0.17039 0.284339,-1.37336 1.464381,-2.4391 0,0 -1.372306,0.72566 -1.916995,2.05493 -0.205316,-0.005 -0.39123,-0.0667 -0.535516,-0.19403 -0.453672,-0.39546 -0.349603,-1.25518 0.231775,-1.92158 1.264355,-1.44815 3.770489,-1.39912 3.770489,-1.39912 0,0 -0.28822,0.4946 -0.276225,1.29329"
         style="fill:#f58614;fill-opacity:1;fill-rule:nonzero;stroke:none;stroke-width:0.03527778"
         id="path852"
         inkscape:connector-curvature="0" />
      <path
         d="m 55.876017,209.23504 c 0.598664,0.39193 1.65347,1.04775 1.928284,2.09338 0.225072,0.85443 -0.151342,1.55469 -0.733425,1.70674 -0.190853,0.0508 -0.388056,0.0205 -0.578203,-0.0706 -0.122767,-0.12065 -0.975078,-1.00577 -1.1938,-2.57951 0,0 -0.170745,1.54129 0.623358,2.74003 -0.119591,0.16369 -0.274461,0.28469 -0.461433,0.33373 -0.581378,0.1524 -1.235428,-0.41734 -1.460853,-1.27212 -0.487892,-1.85949 0.959908,-3.90419 0.959908,-3.90419 0,0 0.248003,0.5147 0.916164,0.9525"
         style="fill:#eb1d27;fill-opacity:1;fill-rule:nonzero;stroke:none;stroke-width:0.03527778"
         id="path854"
         inkscape:connector-curvature="0" />
      <path
         d="m 10.376152,233.35163 c 0.345369,-0.62935 0.915105,-1.73108 1.937455,-2.08597 0.835025,-0.29281 1.560689,0.0275 1.758597,0.59584 0.06491,0.18662 0.05115,0.38558 -0.0254,0.58243 -0.109714,0.13159 -0.926394,1.05234 -2.477558,1.39242 0,0 1.549753,0.0494 2.681464,-0.83573 0.173919,0.10583 0.306211,0.25153 0.369358,0.43356 0.198261,0.56833 -0.318558,1.26541 -1.152172,1.55469 -1.816453,0.63465 -3.9691027,-0.64946 -3.9691027,-0.64946 0,0 0.4953,-0.28857 0.8773587,-0.98778"
         style="fill:#eb1d27;fill-opacity:1;fill-rule:nonzero;stroke:none;stroke-width:0.03527778"
         id="path856"
         inkscape:connector-curvature="0" />
      <path
         d="m 87.413292,236.20208 c -0.322792,0.64135 -0.855134,1.76 -1.866195,2.15053 -0.825147,0.31926 -1.561394,0.0219 -1.776236,-0.5394 -0.07232,-0.18274 -0.06562,-0.38417 0.0049,-0.58138 0.105128,-0.13687 0.891117,-1.08338 2.430639,-1.47496 0,0 -1.550458,0.002 -2.653242,0.92428 -0.177094,-0.10019 -0.313266,-0.24095 -0.382764,-0.42228 -0.216958,-0.56056 0.277284,-1.27282 1.102078,-1.59032 1.79317,-0.6925 3.985683,0.51929 3.985683,0.51929 0,0 -0.483658,0.30339 -0.844902,1.01424"
         style="fill:#eb1d27;fill-opacity:1;fill-rule:nonzero;stroke:none;stroke-width:0.03527778"
         id="path858"
         inkscape:connector-curvature="0" />
      <path
         d="m 62.413695,214.73766 c 0.318206,0.86149 0.902758,2.34245 0.386644,3.6322 -0.42298,1.05269 -1.344436,1.48414 -2.060222,1.19769 -0.236714,-0.0953 -0.416983,-0.27588 -0.542925,-0.51471 -0.03387,-0.21696 -0.236008,-1.78329 0.742245,-3.57328 0,0 -1.35255,1.45909 -1.452386,3.30129 -0.249414,0.0787 -0.500945,0.084 -0.731309,-0.009 -0.714375,-0.2861 -0.954616,-1.37372 -0.531989,-2.42605 0.917928,-2.28883 3.9751,-3.29001 3.9751,-3.29001 0,0 -0.138289,0.72073 0.214842,1.68204"
         style="fill:#5d2790;fill-opacity:1;fill-rule:nonzero;stroke:none;stroke-width:0.03527778"
         id="path860"
         inkscape:connector-curvature="0" />
      <path
         d="m 56.876495,223.29076 c -0.34043,0.94015 -0.888294,2.58057 -2.221794,3.29177 -1.087967,0.58103 -2.156178,0.29492 -2.550936,-0.44556 -0.130175,-0.242 -0.153106,-0.52105 -0.09137,-0.80715 0.122767,-0.20532 1.051631,-1.64853 3.11785,-2.45287 0,0 -2.148416,0.26635 -3.519311,1.72861 -0.261055,-0.10865 -0.47378,-0.28045 -0.600075,-0.51787 -0.395817,-0.74048 0.166864,-1.80975 1.254831,-2.39113 2.365727,-1.264 5.609872,0.0448 5.609872,0.0448 0,0 -0.621242,0.50271 -0.999067,1.5494"
         style="fill:#7ecb2a;fill-opacity:1;fill-rule:nonzero;stroke:none;stroke-width:0.03527778"
         id="path862"
         inkscape:connector-curvature="0" />
      <path
         d="m 82.659258,232.61115 c -0.178152,0.88759 -0.447675,2.43205 -1.545519,3.25014 -0.897467,0.66746 -1.891594,0.55527 -2.345972,-0.055 -0.149225,-0.20038 -0.208845,-0.44662 -0.191559,-0.7112 0.08255,-0.20038 0.719667,-1.6189 2.463448,-2.61938 0,0 -1.889831,0.52952 -2.921,2.0253 -0.248709,-0.0621 -0.461786,-0.18768 -0.607484,-0.38347 -0.455083,-0.6096 -0.09631,-1.64465 0.801864,-2.3121 1.949097,-1.45098 5.03167,-0.71755 5.03167,-0.71755 0,0 -0.487892,0.53445 -0.685448,1.52329"
         style="fill:#f58614;fill-opacity:1;fill-rule:nonzero;stroke:none;stroke-width:0.03527778"
         id="path864"
         inkscape:connector-curvature="0" />
      <path
         d="m 60.705898,226.04313 c 0.788458,0.15135 2.164291,0.38347 2.896305,1.35573 0.597959,0.79445 0.50412,1.67957 -0.03528,2.08633 -0.177447,0.13264 -0.396522,0.18732 -0.631824,0.17356 -0.1778,-0.0716 -1.443214,-0.63041 -2.343503,-2.17452 0,0 0.481894,1.67605 1.818569,2.58445 -0.05362,0.2226 -0.1651,0.41205 -0.337961,0.54398 -0.540103,0.4057 -1.461911,0.0921 -2.059869,-0.70132 -1.30175,-1.72508 -0.665692,-4.47005 -0.665692,-4.47005 0,0 0.477661,0.43004 1.359253,0.60184"
         style="fill:#e21059;fill-opacity:1;fill-rule:nonzero;stroke:none;stroke-width:0.03527778"
         id="path866"
         inkscape:connector-curvature="0" />
      <path
         d="m 74.944361,226.47423 c 0.113595,0.59302 0.334786,1.61501 -0.138289,2.39677 -0.385586,0.63712 -1.029405,0.81774 -1.463322,0.55563 -0.142169,-0.0871 -0.240947,-0.22331 -0.29598,-0.39124 0.0018,-0.14428 0.0381,-1.18074 0.862541,-2.23696 0,0 -1.033991,0.80081 -1.294694,1.98579 -0.169686,0.024 -0.332317,0 -0.471311,-0.0857 -0.435328,-0.26211 -0.472722,-0.99166 -0.08749,-1.62983 0.840669,-1.38607 2.928761,-1.70745 2.928761,-1.70745 0,0 -0.165806,0.45332 -0.04022,1.11302"
         style="fill:#eb1d27;fill-opacity:1;fill-rule:nonzero;stroke:none;stroke-width:0.03527778"
         id="path868"
         inkscape:connector-curvature="0" />
      <path
         d="m 39.098965,208.76796 c 0.625122,0.50765 1.727905,1.36243 1.914878,2.56399 0.151694,0.98213 -0.349956,1.71908 -1.017764,1.82174 -0.21837,0.0349 -0.437445,-0.0226 -0.63747,-0.14499 -0.12453,-0.14781 -0.97543,-1.23684 -1.038577,-3.02225 0,0 -0.366889,1.70392 0.380647,3.1362 -0.152047,0.16863 -0.338314,0.2854 -0.554567,0.31856 -0.666044,0.10407 -1.332089,-0.60713 -1.484841,-1.58962 -0.332317,-2.13501 1.524352,-4.25485 1.524352,-4.25485 0,0 0.218017,0.60642 0.913342,1.17122"
         style="fill:#eb1d27;fill-opacity:1;fill-rule:nonzero;stroke:none;stroke-width:0.03527778"
         id="path870"
         inkscape:connector-curvature="0" />
      <path
         d="m 53.171976,199.66206 c 0.817739,0.66357 2.260952,1.78259 2.505075,3.35739 0.201083,1.28516 -0.455436,2.25036 -1.329973,2.38583 -0.288925,0.0444 -0.573969,-0.0289 -0.836788,-0.18838 -0.162631,-0.19544 -1.274939,-1.62066 -1.359253,-3.96029 0,0 -0.4826,2.23168 0.497769,4.1074 -0.198261,0.22295 -0.443441,0.37429 -0.724605,0.41769 -0.873831,0.13617 -1.745192,-0.79552 -1.945217,-2.08175 -0.433211,-2.79611 1.994606,-5.57283 1.994606,-5.57283 0,0 0.287161,0.79375 1.198386,1.53494"
         style="fill:#3779c6;fill-opacity:1;fill-rule:nonzero;stroke:none;stroke-width:0.03527778"
         id="path872"
         inkscape:connector-curvature="0" />
      <path
         d="m 16.782949,235.16738 c 0.231069,-0.77047 0.599016,-2.11561 1.640064,-2.74814 0.848783,-0.51611 1.720497,-0.33196 2.071863,0.24483 0.115712,0.18909 0.146756,0.41239 0.109362,0.64487 -0.08996,0.1711 -0.772584,1.37372 -2.397831,2.11455 0,0 1.715911,-0.3122 2.752725,-1.54975 0.2159,0.0762 0.394053,0.20355 0.506589,0.38982 0.351014,0.57715 -0.05362,1.46332 -0.902053,1.98085 -1.847144,1.12113 -4.514497,0.2159 -4.514497,0.2159 0,0 0.47625,-0.43427 0.733778,-1.29293"
         style="fill:#3779c6;fill-opacity:1;fill-rule:nonzero;stroke:none;stroke-width:0.03527778"
         id="path874"
         inkscape:connector-curvature="0" />
      <path
         d="m 26.942596,204.39105 c 0.390525,0.31644 1.080205,0.85301 1.197327,1.60337 0.0949,0.61419 -0.218369,1.07562 -0.636058,1.14088 -0.137583,0.0212 -0.275166,-0.0145 -0.40005,-0.091 -0.07655,-0.0924 -0.6096,-0.774 -0.649464,-1.89089 0,0 -0.229658,1.06609 0.238478,1.95968 -0.0956,0.10795 -0.212372,0.17956 -0.346075,0.20143 -0.418042,0.0642 -0.834319,-0.37923 -0.929217,-0.99518 -0.207786,-1.33527 0.953206,-2.66206 0.953206,-2.66206 0,0 0.136172,0.37994 0.571853,0.73378"
         style="fill:#f58614;fill-opacity:1;fill-rule:nonzero;stroke:none;stroke-width:0.03527778"
         id="path876"
         inkscape:connector-curvature="0" />
      <path
         d="m 87.237608,229.00047 c -0.174625,0.36618 -0.462844,1.00894 -1.031169,1.2446 -0.464256,0.19121 -0.883708,0.0328 -1.014589,-0.28363 -0.04198,-0.10337 -0.04198,-0.21555 -0.0046,-0.32915 0.05715,-0.0787 0.490361,-0.62512 1.359253,-0.87065 0,0 -0.87877,0.0233 -1.494367,0.56092 -0.100894,-0.055 -0.181681,-0.13265 -0.221544,-0.23354 -0.131234,-0.31503 0.140052,-0.72673 0.601838,-0.91828 1.00965,-0.4184 2.270831,0.24024 2.270831,0.24024 0,0 -0.271286,0.18062 -0.465667,0.58949"
         style="fill:#5d2790;fill-opacity:1;fill-rule:nonzero;stroke:none;stroke-width:0.03527778"
         id="path878"
         inkscape:connector-curvature="0" />
      <path
         d="m 83.474881,244.98695 c -0.483306,-0.51612 -1.294342,-1.42805 -2.357261,-1.51871 -0.868892,-0.0744 -1.480962,0.40781 -1.531762,0.99836 -0.01729,0.19509 0.0441,0.38135 0.163689,0.55069 0.138289,0.0974 1.141589,0.77575 2.706864,0.72531 0,0 -1.468966,0.42368 -2.765778,-0.14535 -0.140052,0.14394 -0.229305,0.31433 -0.245886,0.50377 -0.0508,0.58984 0.611717,1.12889 1.479198,1.20191 1.886655,0.16334 3.629024,-1.58644 3.629024,-1.58644 0,0 -0.542925,-0.15381 -1.078088,-0.72954"
         style="fill:#7ecb2a;fill-opacity:1;fill-rule:nonzero;stroke:none;stroke-width:0.03527778"
         id="path880"
         inkscape:connector-curvature="0" />
    </g>
  </g>
</svg>
